<?xml version="1.0" standalone="no"?>
<!DOCTYPE svg PUBLIC "-//W3C//DTD SVG 20010904//EN"
 "http://www.w3.org/TR/2001/REC-SVG-20010904/DTD/svg10.dtd">
<svg version="1.0" xmlns="http://www.w3.org/2000/svg"
 width="260.000000pt" height="260.000000pt" viewBox="0 0 260.000000 260.000000"
 preserveAspectRatio="xMidYMid meet">
<metadata>
Created by potrace 1.11, written by Peter Selinger 2001-2013
</metadata>
<g transform="translate(0.000000,260.000000) scale(0.100000,-0.100000)"
fill="#000000" stroke="none">
<path d="M1105 2588 c-2 -7 -6 -37 -8 -67 l-3 -54 -42 -12 c-23 -7 -42 -11
-42 -9 0 7 -185 -63 -235 -89 l-49 -24 -48 50 -47 50 -38 -33 c-41 -36 -192
-173 -285 -259 -32 -30 -58 -59 -58 -66 0 -7 9 -20 21 -31 12 -10 30 -31 40
-46 19 -27 19 -27 -7 -65 -38 -56 -74 -128 -110 -223 l-32 -85 -59 0 c-32 0
-63 -3 -69 -7 -6 -4 -12 -33 -13 -65 -2 -32 -4 -89 -6 -128 -18 -364 -26 -323
64 -328 48 -2 55 -6 62 -27 4 -14 17 -61 29 -105 12 -44 39 -116 60 -161 l37
-81 -43 -37 c-24 -21 -44 -45 -44 -55 0 -9 57 -79 127 -156 69 -77 144 -159
165 -183 45 -49 56 -49 110 4 36 34 37 35 67 20 16 -9 33 -16 36 -16 6 0 175
346 175 359 0 5 -29 35 -65 67 -424 383 -309 1067 215 1281 152 62 273 72 473
38 l37 -6 66 138 c106 222 106 220 88 238 -9 8 -21 15 -29 15 -18 0 -23 18
-18 77 5 72 15 68 -182 77 -77 4 -184 9 -238 12 -75 4 -98 2 -102 -8z"/>
<path d="M2019 2309 c-41 -35 -49 -39 -67 -28 -25 15 -50 6 -61 -23 -5 -13
-41 -90 -80 -172 l-72 -148 79 -77 c90 -88 131 -144 177 -244 49 -108 68 -196
68 -317 -1 -124 -20 -212 -67 -315 -148 -320 -473 -494 -820 -439 -49 8 -84 9
-91 4 -21 -18 -168 -339 -162 -355 4 -8 17 -19 30 -24 22 -9 24 -14 20 -66 -5
-62 7 -85 41 -83 11 1 77 -2 146 -6 379 -21 338 -28 343 61 3 61 5 63 49 69
49 8 205 62 268 94 l56 28 38 -44 c21 -24 46 -44 55 -44 24 0 381 323 381 344
0 7 -14 25 -31 42 -50 47 -52 58 -23 101 38 56 83 148 115 233 l27 75 57 -3
c32 -1 63 2 70 8 7 6 13 34 14 63 0 28 3 81 5 117 12 169 15 316 8 327 -4 6
-33 13 -64 15 -31 2 -59 6 -62 9 -3 2 -8 20 -11 39 -10 54 -64 209 -96 271
l-28 57 44 37 c25 20 45 44 45 53 0 9 -15 33 -33 52 -35 39 -174 193 -228 254
-49 56 -71 76 -83 75 -6 0 -32 -18 -57 -40z"/>
</g>
</svg>
